<svg class="icon" viewBox="0 0 1024 1024" xmlns="http://www.w3.org/2000/svg" width="32" height="32"><path d="M472.615 866.462h78.77v78.769h-78.77z" fill="#FFF"/><path d="M157.538 866.462h78.77v78.769h-78.77zm630.154 0h78.77v78.769h-78.77zm157.539-236.308H1024v78.77h-78.77zm0-78.77H1024v78.77h-78.77zm0-78.769H1024v78.77h-78.77zm0-78.769H1024v78.77h-78.77zm0-78.77H1024v78.77h-78.77zm-78.77 393.847h78.77v78.77h-78.77z" fill="#1E2028"/><path d="M866.462 630.154h78.769v78.77h-78.77zm0-78.77h78.769v78.77h-78.77zm0-78.769h78.769v78.77h-78.77zm0-78.769h78.769v78.77h-78.77zm0-78.77h78.769v78.77h-78.77z" fill="#FF9343"/><path d="M866.462 236.308h78.769v78.769h-78.77zm0-78.77h78.769v78.77h-78.77zm0-78.769h78.769v78.77h-78.77zm0-78.769h78.769v78.77h-78.77zm-78.77 787.692h78.77v78.77h-78.77z" fill="#1E2028"/><path d="M787.692 708.923h78.77v78.77h-78.77z" fill="#FF9343"/><path d="M787.692 630.154h78.77v78.77h-78.77zm0-78.77h78.77v78.77h-78.77zm0-78.769h78.77v78.77h-78.77zm0-78.769h78.77v78.77h-78.77zm0-78.77h78.77v78.77h-78.77z" fill="#FFDD4D"/><path d="M787.692 236.308h78.77v78.769h-78.77zm0-78.77h78.77v78.77h-78.77zm0-78.769h78.77v78.77h-78.77z" fill="#FF9343"/><path d="M787.692 0h78.77v78.77h-78.77zm-78.769 787.692h78.77v78.77h-78.77z" fill="#1E2028"/><path d="M708.923 708.923h78.77v78.77h-78.77z" fill="#FF9343"/><path d="M708.923 630.154h78.77v78.77h-78.77zm0-78.77h78.77v78.77h-78.77zm0-78.769h78.77v78.77h-78.77zm0-78.769h78.77v78.77h-78.77zm0-78.77h78.77v78.77h-78.77zm0-78.768h78.77v78.769h-78.77zm0-78.77h78.77v78.77h-78.77z" fill="#FFDD4D"/><path d="M708.923 78.77h78.77v78.768h-78.77zm-78.77 708.922h78.77v78.77h-78.77z" fill="#1E2028"/><path d="M630.154 708.923h78.77v78.77h-78.77z" fill="#FF9343"/><path d="M630.154 630.154h78.77v78.77h-78.77z" fill="#FFDD4D"/><path d="M630.154 551.385h78.77v78.769h-78.77zm0-78.77h78.77v78.77h-78.77z" fill="#1E2028"/><path d="M630.154 393.846h78.77v78.77h-78.77z" fill="#FFDD4D"/><path d="M630.154 315.077h78.77v78.77h-78.77zm0-78.77h78.77v78.77h-78.77z" fill="#FF9343"/><path d="M630.154 157.538h78.77v78.77h-78.77zm-78.77 630.154h78.77v78.77h-78.77z" fill="#1E2028"/><path d="M551.385 708.923h78.769v78.77h-78.77z" fill="#FF9343"/><path d="M551.385 630.154h78.769v78.77h-78.77zm0-78.77h78.769v78.77h-78.77zm0-78.769h78.769v78.77h-78.77zm0-78.769h78.769v78.77h-78.77zm0-78.77h78.769v78.77h-78.77zm0-78.768h78.769v78.769h-78.77z" fill="#FFDD4D"/><path d="M551.385 157.538h78.769v78.77h-78.77zm-78.77 630.154h78.77v78.77h-78.77z" fill="#1E2028"/><path d="M472.615 708.923h78.77v78.77h-78.77z" fill="#FF9343"/><path d="M472.615 630.154h78.77v78.77h-78.77z" fill="#1E2028"/><path d="M472.615 551.385h78.77v78.769h-78.77zm0-78.77h78.77v78.77h-78.77zm0-78.769h78.77v78.77h-78.77z" fill="#FFDD4D"/><path d="M472.615 315.077h78.77v78.77h-78.77zm0-78.77h78.77v78.77h-78.77z" fill="#FF9343"/><path d="M472.615 157.538h78.77v78.77h-78.77zm-78.769 630.154h78.77v78.77h-78.77z" fill="#1E2028"/><path d="M393.846 708.923h78.77v78.77h-78.77z" fill="#FF9343"/><path d="M393.846 630.154h78.77v78.77h-78.77zm0-78.77h78.77v78.77h-78.77zm0-78.769h78.77v78.77h-78.77zm0-78.769h78.77v78.77h-78.77zm0-78.77h78.77v78.77h-78.77zm0-78.768h78.77v78.769h-78.77z" fill="#FFDD4D"/><path d="M393.846 157.538h78.77v78.77h-78.77zm-78.77 630.154h78.77v78.77h-78.77z" fill="#1E2028"/><path d="M315.077 708.923h78.77v78.77h-78.77z" fill="#FF9343"/><path d="M315.077 630.154h78.77v78.77h-78.77z" fill="#FFDD4D"/><path d="M315.077 551.385h78.77v78.769h-78.77zm0-78.77h78.77v78.77h-78.77z" fill="#1E2028"/><path d="M315.077 393.846h78.77v78.77h-78.77z" fill="#FFDD4D"/><path d="M315.077 315.077h78.77v78.77h-78.77zm0-78.77h78.77v78.77h-78.77z" fill="#FF9343"/><path d="M315.077 157.538h78.77v78.77h-78.77zm-78.77 630.154h78.77v78.77h-78.77z" fill="#1E2028"/><path d="M236.308 708.923h78.769v78.77h-78.77z" fill="#FFF1B6"/><path d="M236.308 630.154h78.769v78.77h-78.77zm0-78.77h78.769v78.77h-78.77zm0-78.769h78.769v78.77h-78.77zm0-78.769h78.769v78.77h-78.77zm0-78.77h78.769v78.77h-78.77zm0-78.768h78.769v78.769h-78.77zm0-78.77h78.769v78.77h-78.77z" fill="#FFDD4D"/><path d="M236.308 78.77h78.769v78.768h-78.77zm-78.77 708.922h78.77v78.77h-78.77z" fill="#1E2028"/><path d="M157.538 708.923h78.77v78.77h-78.77z" fill="#FFF1B6"/><path d="M157.538 630.154h78.77v78.77h-78.77zm0-78.77h78.77v78.77h-78.77zm0-78.769h78.77v78.77h-78.77zm0-78.769h78.77v78.77h-78.77zm0-78.77h78.77v78.77h-78.77z" fill="#FFDD4D"/><path d="M157.538 236.308h78.77v78.769h-78.77zm0-78.77h78.77v78.77h-78.77zm0-78.769h78.77v78.77h-78.77z" fill="#FFF1B6"/><path d="M157.538 0h78.77v78.77h-78.77zM78.77 708.923h78.77v78.77h-78.77z" fill="#1E2028"/><path d="M78.77 630.154h78.768v78.77H78.77zm0-78.77h78.768v78.77H78.77zm0-78.769h78.768v78.77H78.77zm0-78.769h78.768v78.77H78.77zm0-78.77h78.768v78.77H78.77z" fill="#FFF1B6"/><path d="M78.77 236.308h78.768v78.769H78.77zm0-78.77h78.768v78.77H78.77zm0-78.769h78.768v78.77H78.77zM78.77 0h78.768v78.77H78.77zM0 630.154h78.77v78.77H0zm0-78.77h78.77v78.77H0zm0-78.769h78.77v78.77H0zm0-78.769h78.77v78.77H0zm0-78.77h78.77v78.77H0zm157.538 630.155h78.77V1024h-78.77zm78.77 0h78.769V1024h-78.77zm78.769 0h78.77V1024h-78.77zm78.77 0h78.768V1024h-78.769z" fill="#1E2028"/><path d="M236.308 866.462h78.769v78.769h-78.77z" fill="#AAF2C7"/><path d="M315.077 866.462h78.77v78.769h-78.77zm78.77 0h78.768v78.769h-78.769zm157.538 0h78.769v78.769h-78.77zm78.769 0h78.77v78.769h-78.77z" fill="#60EF9A"/><path d="M708.923 866.462h78.77v78.769h-78.77z" fill="#38B269"/><path d="M472.615 945.23h78.77V1024h-78.77zm78.77 0h78.769V1024h-78.77zm78.769 0h78.77V1024h-78.77zm78.77 0h78.768V1024h-78.769zm78.768 0h78.77V1024h-78.77z" fill="#1E2028"/></svg>